# xmcd CD database file
#
# Track frame offsets:
#	150
#	21315
#	45004
#	61667
#	85929
#	101298
#	119102
#	137889
#	159103
#	173874
#
# Disc length: 2551 seconds
#
# Revision: 0
# Processed by: cddbd v1.5.2PL0 Copyright (c) Steve Scherf et al.
# Submitted via: CDex 1.74
#
DISCID=7409f50a
DTITLE=Cyrus, Billy Ray - Change My Mind
DYEAR=2012
DGENRE=Country
TTITLE0=Change My Mind
TTITLE1=Once Again
TTITLE2=Hillbilly Heart
TTITLE3=Tomorrow Became Yesterday
TTITLE4=Good As Gone
TTITLE5=Forgot To Forget
TTITLE6=Thats What Daddy's Do
TTITLE7=Hope Is Just Ahead
TTITLE8=I'm So Miserable
TTITLE9=Stomp
EXTD=YEAR: 2012
EXTT0=
EXTT1=
EXTT2=
EXTT3=
EXTT4=
EXTT5=
EXTT6=
EXTT7=
EXTT8=
EXTT9=
PLAYORDER=
